<svg width="75" height="75" viewBox="0 0 75 75" fill="none" xmlns="http://www.w3.org/2000/svg">
<path d="M50.0923 65.9483C50.5694 63.9776 51.0569 61.6539 48.7862 55.5517C48.5574 54.9349 45.0867 47.5435 44.2604 45.5379C42.6686 47.7065 40.8957 49.9034 38.916 52.0784C37.3552 53.7931 36.0621 55.7573 35.3199 57.9543C34.5634 60.1953 34.2026 63.0323 35.2875 65.9483H50.0923Z" fill="#F29C1F"/>
<path d="M31.8931 29.6741C32.7969 33.031 34.0655 37.1328 35.8086 41.5306C36.203 40.8905 36.5004 40.3771 36.6362 40.0875C37.6267 37.9578 38.2086 36.1073 38.5267 33.0853C36.0465 32.4543 33.7952 31.2647 31.8931 29.6741Z" fill="#F29C1F"/>
<path d="M38.541 32.9405C38.5682 32.6651 38.5953 32.3832 38.6199 32.0871C38.5953 32.3819 38.5695 32.6651 38.541 32.9405Z" fill="#F29C1F"/>
<path d="M38.6418 31.822C38.281 36.706 37.3952 38.6664 35.5668 42.2522C34.4457 44.4504 32.1064 47.6897 30.4552 49.522C24.4888 56.1414 23.8099 62.4414 24.0297 65.9483H35.2888C34.2039 63.0323 34.5646 60.1953 35.3211 57.9543C36.0633 55.7586 37.3564 53.7931 38.9172 52.0785C43.2439 47.325 46.6034 42.4629 49.1715 38.0483C52.1379 32.9496 54.1125 27.3466 55.0112 21.5276C55.1599 20.5655 54.653 19.619 53.7892 19.1716C52.6539 18.5845 51.2573 19.0384 50.6845 20.1828C48.8353 23.8797 45.9 26.9237 42.2715 28.9048L39.556 30.3879C39.0258 30.6763 38.687 31.2207 38.6418 31.822Z" fill="#F0C419"/>
<path d="M58.1897 69.8276H15.5173V75H58.1897V69.8276Z" fill="#F0C419"/>
<path d="M54.3103 65.9482H19.3965V69.8276H54.3103V65.9482Z" fill="#659C35"/>
<path d="M42.6724 0C33.3879 0 25.8621 7.52586 25.8621 16.8103C25.8621 24.6595 31.2504 31.2323 38.5228 33.0828C38.5655 32.6767 38.6082 32.2733 38.6418 31.822C38.6858 31.2207 39.0259 30.6763 39.5547 30.3866L42.2702 28.9047C45.8987 26.9237 48.8353 23.881 50.6832 20.1828C51.2547 19.0384 52.6513 18.5845 53.7879 19.1716C54.6517 19.619 55.1586 20.5655 55.0099 21.5276C54.5715 24.3659 53.872 27.1513 52.9319 29.8539C53.272 29.6754 53.4659 29.6121 53.4077 29.7427C57.119 26.6586 59.4828 22.0112 59.4828 16.8103C59.4828 7.52586 51.9569 0 42.6724 0Z" fill="#F3D55B"/>
</svg>
