<svg width="481" height="481" viewBox="0 0 481 481" fill="none" xmlns="http://www.w3.org/2000/svg">
<path d="M127.54 435.136V45.014C60.0188 84.0262 15.0047 156.799 15.0047 240.075C15.0047 323.351 60.0188 396.124 127.54 435.136Z" fill="#699635"/>
<path d="M240.075 15.0046C198.812 15.0046 160.55 26.2582 127.54 45.014V435.136C160.55 454.642 198.812 465.145 240.075 465.145C364.614 465.145 465.145 364.614 465.145 240.075C465.145 115.536 364.614 15.0046 240.075 15.0046Z" fill="#ED4C5C"/>
<path d="M127.54 150.047C78.0244 150.047 37.5117 190.56 37.5117 240.075C37.5117 289.59 78.0244 330.103 127.54 330.103C177.055 330.103 217.568 289.59 217.568 240.075C217.568 190.56 177.055 150.047 127.54 150.047ZM127.54 318.85C84.0262 318.85 48.7652 283.589 48.7652 240.075C48.7652 196.561 84.0262 161.3 127.54 161.3C171.053 161.3 206.314 196.561 206.314 240.075C206.314 283.589 171.053 318.85 127.54 318.85Z" fill="#FFE62E"/>
<path d="M158.299 327.852C156.799 329.353 154.548 329.353 153.048 327.852L50.2657 192.06C48.7652 190.559 48.7652 188.309 50.2657 186.808L52.5164 184.558C54.0168 183.057 56.2675 183.057 57.768 184.558L160.55 320.35C162.051 321.851 162.051 324.101 160.55 325.602L158.299 327.852" fill="#FFE62E"/>
<path d="M129.04 146.296C131.291 146.296 132.791 147.796 132.791 150.047V330.103C132.791 332.354 131.291 333.854 129.04 333.854H125.289C123.038 333.854 121.538 332.354 121.538 330.103V150.047C121.538 147.796 123.038 146.296 125.289 146.296H129.04Z" fill="#FFE62E"/>
<path d="M216.818 249.828L127.54 234.073V245.327L215.317 261.082C217.568 261.082 219.068 260.331 219.819 258.081L220.569 254.329C220.569 252.829 219.068 250.578 216.818 249.828" fill="#FFE62E"/>
<path d="M127.54 233.323L57.0178 183.807C55.5173 182.307 53.2666 183.057 51.7662 184.558L49.5155 187.559C48.015 189.059 48.7652 191.31 50.2657 192.81L127.54 246.827V233.323" fill="#FFE62E"/>
<path d="M124.539 225.07L54.0169 295.592C52.5164 297.093 52.5164 299.344 54.0169 300.844L57.0178 303.845C58.5183 305.345 60.769 305.345 62.2694 303.845L124.539 241.575V225.07Z" fill="#FFE62E"/>
<path d="M127.54 191.31L33.7605 235.574C32.2601 236.324 30.7596 238.574 32.2601 240.825L33.7605 244.576C34.5108 246.077 36.7615 247.577 39.0122 246.077L127.54 204.064V191.31Z" fill="#FFE62E"/>
<path d="M210.816 204.064L121.538 188.309V199.562L209.315 215.317C211.566 215.317 213.067 214.567 213.817 212.316L214.567 208.565C213.817 206.314 212.316 204.064 210.816 204.064" fill="#FFE62E"/>
<path d="M126.79 291.841C125.289 292.591 123.789 294.842 125.289 297.093L126.79 300.844C127.54 302.344 129.791 303.845 132.041 302.344L207.065 267.834L210.816 253.579L126.79 291.841" fill="#FFE62E"/>
<path d="M126.79 266.333L42.7633 235.573V247.577L126.79 278.337V266.333Z" fill="#FFE62E"/>
<path d="M68.2713 291.091V302.344L179.306 309.847C183.807 306.846 187.559 303.095 191.31 299.343L68.2713 291.091Z" fill="#FFE62E"/>
<path d="M90.0281 202.563V255.08C90.0281 276.086 106.533 292.591 127.54 292.591C148.546 292.591 165.052 276.086 165.052 255.08V202.563H90.0281Z" fill="white"/>
<path d="M127.54 307.596C98.2807 307.596 75.0234 284.339 75.0234 255.08V187.559H180.056V255.08C180.056 284.339 156.799 307.596 127.54 307.596ZM105.033 217.568V255.08C105.033 267.834 114.786 277.587 127.54 277.587C140.294 277.587 150.047 267.834 150.047 255.08V217.568H105.033Z" fill="#ED4C5C"/>
<path d="M120.788 220.569V232.573C120.788 234.823 122.288 236.324 124.539 236.324H130.541C132.791 236.324 134.292 234.823 134.292 232.573V219.819H120.788V220.569Z" fill="#0071BC"/>
<path d="M120.788 239.325V252.079C120.788 254.329 122.288 255.83 124.539 255.83H130.541C132.791 255.83 134.292 254.329 134.292 252.079V239.325H120.788" fill="#0071BC"/>
<path d="M105.783 239.325V252.079C105.783 254.329 107.284 255.83 109.534 255.83H115.536C117.787 255.83 119.287 254.329 119.287 252.079V239.325H105.783" fill="#0071BC"/>
<path d="M135.792 239.325V252.079C135.792 254.329 137.293 255.83 139.544 255.83H145.545C147.796 255.83 149.297 254.329 149.297 252.079V239.325H135.792" fill="#0071BC"/>
<path d="M120.788 257.33V270.084C120.788 272.335 122.288 273.835 124.539 273.835H130.541C132.791 273.835 134.292 272.335 134.292 270.084V257.33H120.788Z" fill="#0071BC"/>
<path d="M127.54 248.328C128.369 248.328 129.04 247.656 129.04 246.827C129.04 245.998 128.369 245.327 127.54 245.327C126.711 245.327 126.039 245.998 126.039 246.827C126.039 247.656 126.711 248.328 127.54 248.328Z" fill="white"/>
<path d="M124.539 252.079C125.368 252.079 126.039 251.407 126.039 250.578C126.039 249.75 125.368 249.078 124.539 249.078C123.71 249.078 123.038 249.75 123.038 250.578C123.038 251.407 123.71 252.079 124.539 252.079Z" fill="white"/>
<path d="M130.541 252.079C131.369 252.079 132.041 251.407 132.041 250.578C132.041 249.75 131.369 249.078 130.541 249.078C129.712 249.078 129.04 249.75 129.04 250.578C129.04 251.407 129.712 252.079 130.541 252.079Z" fill="white"/>
<path d="M124.539 244.576C125.368 244.576 126.039 243.905 126.039 243.076C126.039 242.247 125.368 241.575 124.539 241.575C123.71 241.575 123.038 242.247 123.038 243.076C123.038 243.905 123.71 244.576 124.539 244.576Z" fill="white"/>
<path d="M130.541 244.576C131.369 244.576 132.041 243.905 132.041 243.076C132.041 242.247 131.369 241.575 130.541 241.575C129.712 241.575 129.04 242.247 129.04 243.076C129.04 243.905 129.712 244.576 130.541 244.576Z" fill="white"/>
<path d="M127.54 229.572C128.369 229.572 129.04 228.9 129.04 228.071C129.04 227.243 128.369 226.571 127.54 226.571C126.711 226.571 126.039 227.243 126.039 228.071C126.039 228.9 126.711 229.572 127.54 229.572Z" fill="white"/>
<path d="M124.539 233.323C125.368 233.323 126.039 232.651 126.039 231.822C126.039 230.994 125.368 230.322 124.539 230.322C123.71 230.322 123.038 230.994 123.038 231.822C123.038 232.651 123.71 233.323 124.539 233.323Z" fill="white"/>
<path d="M130.541 233.323C131.369 233.323 132.041 232.651 132.041 231.822C132.041 230.994 131.369 230.322 130.541 230.322C129.712 230.322 129.04 230.994 129.04 231.822C129.04 232.651 129.712 233.323 130.541 233.323Z" fill="white"/>
<path d="M124.539 225.821C125.368 225.821 126.039 225.149 126.039 224.32C126.039 223.491 125.368 222.82 124.539 222.82C123.71 222.82 123.038 223.491 123.038 224.32C123.038 225.149 123.71 225.821 124.539 225.821Z" fill="white"/>
<path d="M130.541 225.821C131.369 225.821 132.041 225.149 132.041 224.32C132.041 223.491 131.369 222.82 130.541 222.82C129.712 222.82 129.04 223.491 129.04 224.32C129.04 225.149 129.712 225.821 130.541 225.821Z" fill="white"/>
<path d="M142.545 248.328C143.373 248.328 144.045 247.656 144.045 246.827C144.045 245.998 143.373 245.327 142.545 245.327C141.716 245.327 141.044 245.998 141.044 246.827C141.044 247.656 141.716 248.328 142.545 248.328Z" fill="white"/>
<path d="M139.544 252.079C140.372 252.079 141.044 251.407 141.044 250.578C141.044 249.75 140.372 249.078 139.544 249.078C138.715 249.078 138.043 249.75 138.043 250.578C138.043 251.407 138.715 252.079 139.544 252.079Z" fill="white"/>
<path d="M145.545 252.079C146.374 252.079 147.046 251.407 147.046 250.578C147.046 249.75 146.374 249.078 145.545 249.078C144.717 249.078 144.045 249.75 144.045 250.578C144.045 251.407 144.717 252.079 145.545 252.079Z" fill="white"/>
<path d="M139.544 244.576C140.372 244.576 141.044 243.905 141.044 243.076C141.044 242.247 140.372 241.575 139.544 241.575C138.715 241.575 138.043 242.247 138.043 243.076C138.043 243.905 138.715 244.576 139.544 244.576Z" fill="white"/>
<path d="M145.545 244.576C146.374 244.576 147.046 243.905 147.046 243.076C147.046 242.247 146.374 241.575 145.545 241.575C144.717 241.575 144.045 242.247 144.045 243.076C144.045 243.905 144.717 244.576 145.545 244.576Z" fill="white"/>
<path d="M112.535 248.328C113.364 248.328 114.036 247.656 114.036 246.827C114.036 245.998 113.364 245.327 112.535 245.327C111.706 245.327 111.035 245.998 111.035 246.827C111.035 247.656 111.706 248.328 112.535 248.328Z" fill="white"/>
<path d="M109.534 252.079C110.363 252.079 111.035 251.407 111.035 250.578C111.035 249.75 110.363 249.078 109.534 249.078C108.706 249.078 108.034 249.75 108.034 250.578C108.034 251.407 108.706 252.079 109.534 252.079Z" fill="white"/>
<path d="M115.536 252.079C116.365 252.079 117.037 251.407 117.037 250.578C117.037 249.75 116.365 249.078 115.536 249.078C114.707 249.078 114.036 249.75 114.036 250.578C114.036 251.407 114.707 252.079 115.536 252.079Z" fill="white"/>
<path d="M109.534 244.576C110.363 244.576 111.035 243.905 111.035 243.076C111.035 242.247 110.363 241.575 109.534 241.575C108.706 241.575 108.034 242.247 108.034 243.076C108.034 243.905 108.706 244.576 109.534 244.576Z" fill="white"/>
<path d="M115.536 244.576C116.365 244.576 117.037 243.905 117.037 243.076C117.037 242.247 116.365 241.575 115.536 241.575C114.707 241.575 114.036 242.247 114.036 243.076C114.036 243.905 114.707 244.576 115.536 244.576Z" fill="white"/>
<path d="M127.54 267.083C128.369 267.083 129.04 266.412 129.04 265.583C129.04 264.754 128.369 264.083 127.54 264.083C126.711 264.083 126.039 264.754 126.039 265.583C126.039 266.412 126.711 267.083 127.54 267.083Z" fill="white"/>
<path d="M124.539 270.835C125.368 270.835 126.039 270.163 126.039 269.334C126.039 268.505 125.368 267.834 124.539 267.834C123.71 267.834 123.038 268.505 123.038 269.334C123.038 270.163 123.71 270.835 124.539 270.835Z" fill="white"/>
<path d="M130.541 270.835C131.369 270.835 132.041 270.163 132.041 269.334C132.041 268.505 131.369 267.834 130.541 267.834C129.712 267.834 129.04 268.505 129.04 269.334C129.04 270.163 129.712 270.835 130.541 270.835Z" fill="white"/>
<path d="M124.539 263.332C125.368 263.332 126.039 262.66 126.039 261.832C126.039 261.003 125.368 260.331 124.539 260.331C123.71 260.331 123.038 261.003 123.038 261.832C123.038 262.66 123.71 263.332 124.539 263.332Z" fill="white"/>
<path d="M130.541 263.332C131.369 263.332 132.041 262.66 132.041 261.832C132.041 261.003 131.369 260.331 130.541 260.331C129.712 260.331 129.04 261.003 129.04 261.832C129.04 262.66 129.712 263.332 130.541 263.332Z" fill="white"/>
<path d="M120.038 210.066H135.042L133.542 202.563V195.061H135.042V191.31H132.791V193.561H132.041V191.31H129.791V193.561H128.29V191.31H126.79V193.561H125.289V191.31H123.038V193.561H121.538V191.31H120.038V195.061H121.538V202.563L120.038 210.066Z" fill="#FFE62E"/>
<path d="M129.791 210.066H129.04V207.065C129.04 206.314 128.29 205.564 127.54 205.564C126.79 205.564 126.039 206.314 126.039 207.065V210.066H125.289V207.065C125.289 205.564 126.039 204.814 127.54 204.814C129.04 204.814 129.791 205.564 129.791 207.065V210.066Z" fill="#3E4347"/>
<path d="M127.54 201.813H123.038V198.062C123.038 196.561 123.789 195.811 125.289 195.811C126.79 195.811 127.54 196.561 127.54 198.062V201.813ZM123.789 201.063H126.79V198.062C126.79 197.312 126.039 196.561 125.289 196.561C124.539 196.561 123.789 197.312 123.789 198.062V201.063Z" fill="#3E4347"/>
<path d="M132.041 201.813H127.54V198.062C127.54 196.561 128.29 195.811 129.791 195.811C131.291 195.811 132.041 196.561 132.041 198.062V201.813ZM128.29 201.063H131.291V198.062C131.291 197.312 130.541 196.561 129.791 196.561C129.04 196.561 128.29 197.312 128.29 198.062V201.063Z" fill="#3E4347"/>
<path d="M82.5258 210.066H97.5305L96.03 202.563V195.061H97.5305V191.31H95.2798V193.561H94.5295V191.31H92.2788V193.561H90.7784V191.31H89.2779V193.561H87.7774V191.31H85.5267V193.561H84.0263V191.31H82.5258V195.061H84.0263V202.563L82.5258 210.066Z" fill="#FFE62E"/>
<path d="M92.2788 210.066H91.5286V207.065C91.5286 206.314 90.7784 205.564 90.0281 205.564C89.2779 205.564 88.5277 206.314 88.5277 207.065V210.066H87.7774V207.065C87.7774 205.564 88.5277 204.814 90.0281 204.814C91.5286 204.814 92.2788 205.564 92.2788 207.065V210.066" fill="#3E4347"/>
<path d="M90.0281 201.813H85.5267V198.062C85.5267 196.561 86.277 195.811 87.7774 195.811C89.2779 195.811 90.0281 196.561 90.0281 198.062V201.813M86.277 201.063H89.2779V198.062C89.2779 197.312 88.5277 196.561 87.7774 196.561C87.0272 196.561 86.277 197.312 86.277 198.062V201.063" fill="#3E4347"/>
<path d="M94.5295 201.813H90.0281V198.062C90.0281 196.561 90.7784 195.811 92.2788 195.811C93.7793 195.811 94.5295 196.561 94.5295 198.062V201.813M90.7784 201.063H93.7793V198.062C93.7793 197.312 93.0291 196.561 92.2788 196.561C91.5286 196.561 90.7784 197.312 90.7784 198.062V201.063" fill="#3E4347"/>
<path d="M82.5258 254.329H97.5305L96.03 246.827V239.325H97.5305V235.574H96.03V237.824H94.5295V235.574H93.0291V237.824H90.7784V235.574H89.2779V237.824H87.7774V235.574H86.277V237.824H84.7765V235.574H82.5258V239.325H84.7765V246.827L82.5258 254.329Z" fill="#FFE62E"/>
<path d="M92.2788 254.329H91.5286V251.328C91.5286 250.578 90.7784 249.828 90.0281 249.828C89.2779 249.828 88.5277 250.578 88.5277 251.328V254.329H87.7774V251.328C87.7774 249.828 88.5277 249.078 90.0281 249.078C91.5286 249.078 92.2788 249.828 92.2788 251.328V254.329" fill="#3E4347"/>
<path d="M90.0281 246.077H85.5267V242.326C85.5267 240.825 86.277 240.075 87.7774 240.075C89.2779 240.075 90.0281 240.825 90.0281 242.326V246.077M86.277 245.327H89.2779V242.326C89.2779 241.575 88.5277 240.825 87.7774 240.825C87.0272 240.825 86.277 241.575 86.277 242.326V245.327" fill="#3E4347"/>
<path d="M95.2798 246.077H90.7784V242.326C90.7784 240.825 91.5286 240.075 93.0291 240.075C94.5295 240.075 95.2798 240.825 95.2798 242.326V246.077M91.5286 245.327H94.5296V242.326C94.5296 241.575 93.7793 240.825 93.0291 240.825C92.2788 240.825 91.5286 241.575 91.5286 242.326V245.327" fill="#3E4347"/>
<path d="M157.549 255.08H172.554L171.053 247.577V240.075H172.554V237.074H170.303V238.575H169.553V237.074H167.302V238.575H165.802V237.074H164.301V238.575H162.801V237.074H160.55V238.575H159.05V237.074H157.549V240.075H159.05V247.577L157.549 255.08Z" fill="#FFE62E"/>
<path d="M167.302 255.08H166.552V252.079C166.552 251.328 165.802 250.578 165.052 250.578C164.301 250.578 163.551 251.328 163.551 252.079V255.08H162.801V252.079C162.801 250.578 163.551 249.828 165.052 249.828C166.552 249.828 167.302 250.578 167.302 252.079V255.08Z" fill="#3E4347"/>
<path d="M165.052 246.827H160.55V243.076C160.55 241.575 161.3 240.825 162.801 240.825C164.301 240.825 165.052 241.575 165.052 243.076V246.827ZM161.3 246.077H164.301V243.076C164.301 242.326 163.551 241.575 162.801 241.575C162.051 241.575 161.3 242.326 161.3 243.076V246.077Z" fill="#3E4347"/>
<path d="M169.553 246.827H165.052V243.076C165.052 241.575 165.802 240.825 167.302 240.825C168.803 240.825 169.553 241.575 169.553 243.076V246.827ZM165.802 246.077H168.803V243.076C168.803 242.326 168.053 241.575 167.302 241.575C166.552 241.575 165.802 242.326 165.802 243.076V246.077Z" fill="#3E4347"/>
<path d="M157.549 210.066H172.554L171.053 202.563V195.061H172.554V191.31H170.303V193.561H169.553V191.31H167.302V193.561H165.802V191.31H164.301V193.561H162.801V191.31H160.55V193.561H159.05V191.31H157.549V195.061H159.05V202.563L157.549 210.066Z" fill="#FFE62E"/>
<path d="M167.302 210.066H166.552V207.065C166.552 206.314 165.802 205.564 165.052 205.564C164.301 205.564 163.551 206.314 163.551 207.065V210.066H162.801V207.065C162.801 205.564 163.551 204.814 165.052 204.814C166.552 204.814 167.302 205.564 167.302 207.065V210.066Z" fill="#3E4347"/>
<path d="M165.052 201.813H160.55V198.062C160.55 196.561 161.3 195.811 162.801 195.811C164.301 195.811 165.052 196.561 165.052 198.062V201.813ZM161.3 201.063H164.301V198.062C164.301 197.312 163.551 196.561 162.801 196.561C162.051 196.561 161.3 197.312 161.3 198.062V201.063Z" fill="#3E4347"/>
<path d="M169.553 201.813H165.052V198.062C165.052 196.561 165.802 195.811 167.302 195.811C168.803 195.811 169.553 196.561 169.553 198.062V201.813ZM165.802 201.063H168.803V198.062C168.803 197.312 168.053 196.561 167.302 196.561C166.552 196.561 165.802 197.312 165.802 198.062V201.063Z" fill="#3E4347"/>
<path d="M106.533 297.093L117.037 285.839L110.284 282.088L105.033 276.836L106.533 275.336L104.283 273.085L102.782 274.586L104.283 276.086L103.532 276.836L102.032 275.336L100.531 276.836L102.032 277.587L100.531 279.087L99.7812 277.587L98.2807 279.087L99.7812 280.588L98.2807 281.338L97.5305 279.837L96.03 281.338L96.7802 282.838L96.03 283.589L95.2798 282.088L93.7793 283.589L96.03 285.839H96.7802L97.5305 285.089L102.782 290.341L106.533 297.093Z" fill="#FFE62E"/>
<path d="M113.285 289.59L110.284 288.09C109.534 287.34 108.784 287.34 108.034 288.09C107.283 288.84 107.283 289.59 108.034 290.341L110.284 292.591L109.534 293.342L107.284 291.091C106.533 290.341 106.533 288.84 107.284 288.09C108.034 287.34 109.534 287.34 110.284 288.09L113.285 289.59Z" fill="#3E4347"/>
<path d="M105.783 285.839L102.782 288.84L100.531 286.59C99.7812 285.839 99.7812 284.339 100.531 283.589C101.282 282.838 102.782 282.838 103.532 283.589L105.783 285.839ZM102.782 288.09L105.033 285.839L102.782 283.589C102.032 282.838 101.282 282.838 100.531 283.589C99.7812 284.339 99.7812 285.089 100.531 285.839L102.782 288.09Z" fill="#3E4347"/>
<path d="M109.534 282.088L106.533 285.089L104.283 282.838C103.532 282.088 103.532 280.588 104.283 279.837C105.033 279.087 106.533 279.087 107.283 279.837L109.534 282.088ZM106.533 284.339L108.784 282.088L106.533 279.837C105.783 279.087 105.033 279.087 104.283 279.837C103.532 280.588 103.532 281.338 104.283 282.088L106.533 284.339Z" fill="#3E4347"/>
<path d="M148.546 297.093L138.043 285.839L144.045 282.088L149.297 276.836L148.546 275.336L150.797 273.085L152.298 274.586L150.797 276.086L151.547 276.836L153.048 275.336L154.548 276.836L153.048 277.587L154.548 279.087L155.299 277.587L156.799 279.087L155.299 280.588L156.799 281.338L157.549 279.837L159.05 281.338L157.549 282.838L159.05 283.589L159.8 282.088L161.3 283.589L159.05 285.839H158.299L157.549 285.089L152.298 290.341L148.546 297.093Z" fill="#FFE62E"/>
<path d="M141.794 289.59L144.795 288.09C145.545 287.34 146.296 287.34 147.046 288.09C147.796 288.84 147.796 289.59 147.046 290.341L144.045 292.591L144.795 293.342L147.046 291.091C147.796 290.341 147.796 288.84 147.046 288.09C146.296 287.34 144.795 287.34 144.045 288.09L141.794 289.59" fill="#3E4347"/>
<path d="M151.547 283.589C152.298 282.838 153.798 282.838 154.548 283.589C155.299 284.339 155.299 285.839 154.548 286.59L152.298 288.84L149.297 285.839L151.547 283.589ZM153.798 285.839C154.548 285.089 154.548 284.339 153.798 283.589C153.048 282.838 152.298 282.838 151.547 283.589L150.047 285.839L152.298 288.09L153.798 285.839Z" fill="#3E4347"/>
<path d="M147.796 279.837C148.546 279.087 150.047 279.087 150.797 279.837C151.547 280.588 151.547 282.088 150.797 282.838L148.546 285.089L145.545 282.088L147.796 279.837ZM150.797 282.088C151.547 281.338 151.547 280.588 150.797 279.837C150.047 279.087 149.297 279.087 148.546 279.837L146.296 282.088L148.546 284.339L150.797 282.088Z" fill="#3E4347"/>
</svg>
